<?xml version="1.0" encoding="UTF-8"?>
<svg version="1.1" xmlns="http://www.w3.org/2000/svg" width="512" height="512">
<path d="M0 0 C3.57100064 0.96265586 7.14434179 1.91622545 10.71801758 2.86889648 C21.84709693 5.84907916 32.94365306 8.91659021 43.97387695 12.24584961 C45.32983223 12.65256142 45.32983223 12.65256142 46.71318054 13.06748962 C71.27844448 20.59827759 92.11486905 32.0272565 105.3527832 54.94506836 C126.98285599 96.36435668 107.25634762 144.23426998 95.94311523 186.17260742 C94.74138183 190.6275017 93.54809952 195.08460894 92.35707188 199.54237556 C70.06167864 282.93243648 70.06167864 282.93243648 55.3762207 299.52319336 C54.65821289 300.33530273 53.94020508 301.14741211 53.20043945 301.98413086 C40.04180446 315.98267872 21.3406069 325.95362491 1.94262695 326.89428711 C-0.05852795 326.92713601 -2.0598885 326.94907987 -4.0612793 326.96069336 C-4.99520508 326.99356445 -5.92913086 327.02643555 -6.89135742 327.06030273 C-28.73226613 327.21460588 -50.91391807 319.88715307 -71.8112793 314.27319336 C-74.32952729 313.60238555 -76.84783844 312.93181484 -79.36621094 312.26147461 C-167.49999874 288.73200707 -167.49999874 288.73200707 -185.71899414 258.71899414 C-206.42230437 222.12546803 -192.63855916 182.99273239 -182.61889648 145.27325439 C-181.72098023 141.88949136 -180.82618487 138.50492539 -179.93244171 135.12005901 C-177.61189393 126.33297804 -175.27470443 117.55044158 -172.92578125 108.77090454 C-172.07145994 105.57708234 -171.22114725 102.38223873 -170.37451172 99.18637085 C-165.93201984 82.43502016 -161.25132387 65.81097802 -155.7800293 49.36303711 C-155.55296295 48.67670071 -155.32589661 47.9903643 -155.09194946 47.28322983 C-146.91123497 22.67742193 -135.29571008 5.06507399 -111.6862793 -7.28930664 C-75.69943604 -24.44675072 -36.13523822 -9.74904559 0 0 Z M-108.6237793 148.27319336 C-110.36722262 153.93938414 -110.66322594 158.48279809 -107.9362793 163.83569336 C-103.08640145 169.47203789 -98.70669121 171.42019916 -91.69360352 173.22460938 C-90.80346054 173.46421387 -89.91331757 173.70381836 -88.99620056 173.95068359 C-86.05995645 174.73793161 -83.11939053 175.50753567 -80.1784668 176.27709961 C-78.12659088 176.82361042 -76.07500996 177.37122989 -74.02371216 177.91990662 C-68.62212467 179.36157143 -63.21671897 180.78837091 -57.81036377 182.21203613 C-52.33959489 183.65532614 -46.87244158 185.11217168 -41.4050293 186.56811523 C-35.24480767 188.20761052 -29.08420822 189.84559761 -22.92111206 191.47425842 C-21.51336612 191.84627837 -21.51336612 191.84627837 -20.07718086 192.22581387 C-18.27839898 192.70081496 -16.47947806 193.17528996 -14.68040276 193.6491785 C-9.37110742 195.05025724 -4.07602327 196.49218218 1.19796753 198.02183533 C6.7964104 199.31040193 11.58795923 199.41732409 16.7512207 196.83569336 C21.72902663 192.45048338 24.03555963 189.39362375 24.46606445 182.72631836 C24.26461423 177.78640854 21.86419513 174.7692679 18.37638855 171.54389954 C14.09946645 167.96404091 9.71259029 166.72049677 4.37353516 165.37939453 C3.39382751 165.11677826 2.41411987 164.85416199 1.40472412 164.58358765 C-1.81246633 163.7260554 -5.03606792 162.89601538 -8.26049805 162.06616211 C-10.50579966 161.47346528 -12.7506519 160.87906372 -14.99507141 160.28303528 C-20.88933215 158.72266975 -26.78942413 157.18559542 -32.69104004 155.65332031 C-38.7016485 154.08829625 -44.70637509 152.50103797 -50.71166992 150.91577148 C-59.47450014 148.60547789 -68.23970279 146.30458615 -77.00927734 144.02001953 C-77.92832352 143.78057114 -78.84736969 143.54112274 -79.79426575 143.29441833 C-83.20830073 142.4060172 -83.20830073 142.4060172 -86.6237793 141.52319336 C-87.29446851 141.34313909 -87.96515772 141.16308481 -88.65617085 140.97757435 C-97.05856722 139.03720396 -103.5360133 141.27751511 -108.6237793 148.27319336 Z M-123.9362793 208.71069336 C-126.28030291 212.61739938 -126.9340498 215.98264948 -126.6237793 220.52319336 C-124.89323596 226.62846426 -122.01430614 229.23834846 -116.6237793 232.52319336 C-113.56476987 233.70282751 -113.56476987 233.70282751 -110.30224609 234.5378418 C-108.45453865 235.04791779 -108.45453865 235.04791779 -106.56950378 235.56829834 C-105.23748748 235.92362635 -103.90531481 236.27836859 -102.57299805 236.63256836 C-101.19048482 237.00735526 -99.80814809 237.38279377 -98.42597961 237.7588501 C-95.53555419 238.54251952 -92.64312399 239.31815246 -89.74902344 240.08813477 C-86.05993606 241.07032737 -82.37663753 242.07250723 -78.69462872 243.08086777 C-75.84246948 243.85950891 -72.98746079 244.62724925 -70.13150978 245.39185333 C-68.77319342 245.75689426 -67.41576287 246.12524952 -66.05930138 246.49712372 C-53.59471822 250.29910342 -53.59471822 250.29910342 -41.3112793 247.83569336 C-36.63437528 243.8113806 -33.98056149 240.55584197 -33.2487793 234.33569336 C-33.72579826 229.48600056 -35.17632423 226.00655942 -38.6237793 222.52319336 C-45.4114252 218.64691766 -52.44240616 216.66535587 -59.9597168 214.63256836 C-61.24722315 214.27993349 -62.53462567 213.92691928 -63.82192993 213.57354736 C-66.50825103 212.83841425 -69.19623848 212.10980433 -71.88549805 211.38549805 C-75.30744788 210.46300371 -78.72379429 209.52137802 -82.13902855 208.57436752 C-84.7928625 207.8413662 -87.44981914 207.12024078 -90.10777664 206.40235138 C-91.97405184 205.89564546 -93.83734267 205.37798773 -95.70053101 204.86004639 C-107.0491035 201.83852472 -114.93806535 200.19886936 -123.9362793 208.71069336 Z " fill="#6D6DFF" transform="translate(345.623779296875,57.476806640625)"/>
<path d="M0 0 C-0.60068082 6.85256677 -2.26517263 13.27622381 -4.07066917 19.90368271 C-4.61931784 21.91803412 -5.1611617 23.93411654 -5.70149231 25.95071411 C-6.85755634 30.26042014 -8.02209402 34.5678124 -9.1875 38.875 C-30.50788056 112.72650951 -30.50788056 112.72650951 -11.48828125 184.8828125 C12.18095451 225.28815855 56.71346935 236.59646003 99 248 C100.02885315 248.27751099 101.0577063 248.55502197 102.11773682 248.84094238 C109.06488754 250.71031443 116.01765778 252.55738472 122.97573853 254.38565063 C125.27902706 254.991395 127.58161213 255.59982228 129.88339233 256.21127319 C148.43405333 261.12662431 167.07282262 264.85864516 186 268 C167.16753672 292.28396581 128.11068361 298.28136158 100.125 305.625 C97.6519546 306.27938196 95.1789734 306.93400663 92.70605469 307.58886719 C85.80861152 309.41031729 78.90599194 311.21125662 72 313 C71.12347778 313.22723755 70.24695557 313.4544751 69.34387207 313.68859863 C36.89920315 322.078068 7.08164002 328.84620488 -23.9375 311.875 C-45.21448654 298.99168705 -55.90742762 280.29585244 -63.3984375 257.09375 C-63.60714729 256.44795738 -63.81585709 255.80216476 -64.03089142 255.13680267 C-70.75685879 234.19705125 -76.21919278 212.87782975 -81.85308838 191.62542725 C-83.05022451 187.1201384 -84.25759102 182.61761721 -85.46479607 178.11501789 C-111.30597511 81.67135353 -111.30597511 81.67135353 -93.05126953 49.76904297 C-73.98398376 17.68322024 -39.91341718 10.02319898 -6.29589844 0.50463867 C-4 0 -4 0 0 0 Z " fill="#4B4BFF" transform="translate(146,147)"/>
</svg>
